<?xml version="1.0" encoding="utf-8"?>
<!-- Generator: Adobe Illustrator 16.0.0, SVG Export Plug-In . SVG Version: 6.00 Build 0)  -->
<!DOCTYPE svg PUBLIC "-//W3C//DTD SVG 1.1//EN" "http://www.w3.org/Graphics/SVG/1.1/DTD/svg11.dtd">
<svg version="1.1" id="圖層_1" xmlns="http://www.w3.org/2000/svg" xmlns:xlink="http://www.w3.org/1999/xlink" x="0px" y="0px"
	 width="683.102px" height="157.536px" viewBox="0 0 683.102 157.536" enable-background="new 0 0 683.102 157.536"
	 xml:space="preserve">
<g>
	<g>
		<g>
			<g>
				<circle fill="#00A0E9" cx="35.187" cy="124.035" r="9.067"/>
				<path fill="#00A0E9" d="M69.318,74.652c-22.771,0-66.519,21.89-69.069,44.63c-2.355,20.996,12.167,38.254,34.937,38.254
					c22.771,0,33.919-20.314,33.919-41.443L69.318,74.652z"/>
			</g>
			<circle fill="#00A0E9" cx="65.128" cy="57.252" r="10.295"/>
			<path fill="#00A0E9" d="M77.642,102.218c24.964,2.367,75.57-20.976,81.114-49.686c5.118-26.507-8.716-50.007-33.679-52.375
				C100.114-2.21,85.436,22.516,82.883,49.435L77.642,102.218z"/>
		</g>
		<circle fill="#F7F8F8" cx="121.339" cy="39.176" r="10.921"/>
		<g>
			<path fill="#00A0E9" d="M327.501,25.443c0,5.592,0,13.98,0,25.164c0,3.071,0,7.566,0,13.486c-5.592,0-14.036,0-25.328,0
				c0-2.96,0-7.455,0-13.486c-21.711,0-54.276,0-97.696,0c0,10.09,0,25.274,0,45.559c12.061,0,30.206,0,54.44,0
				c5.042-4.495,12.608-11.238,22.697-20.23c8.224,0,20.56,0,37.006,0c-10.418,10.09-25.986,25.223-46.71,45.395
				c-15.023,0-37.5,0-67.433,0c0,5.703,0,14.145,0,25.33c-5.592,0-13.98,0-25.164,0c0-26.975,0-67.377,0-121.217
				C212.207,25.443,261.603,25.443,327.501,25.443z"/>
			<path fill="#00A0E9" d="M420.758,25.443c11.949,23.905,29.877,59.813,53.781,107.729c-5.592,2.963-14.09,7.459-25.492,13.488
				c-19.848,0-49.672,0-89.473,0c-5.813-2.961-14.639-7.455-26.48-13.488c11.949-23.902,29.823-59.811,53.618-107.729
				c5.699,0,11.35,0,16.941,0C409.352,25.443,415.055,25.443,420.758,25.443z M371.91,121.33c14.143,0,35.467,0,63.979,0
				c-7.129-15.678-17.82-39.252-32.072-70.723c-5.373,11.842-10.691,23.63-15.953,35.361
				C382.49,97.81,377.172,109.599,371.91,121.33z"/>
			<path fill="#00A0E9" d="M495.59,25.443c5.594,0,13.98,0,25.166,0c0,26.866,0,67.269,0,121.217c-5.594,0-13.98,0-25.166,0
				C495.59,119.685,495.59,79.282,495.59,25.443z"/>
			<g>
				<polygon fill="#00A0E9" points="552.428,69.961 552.428,21.1 676.783,53.442 676.783,69.961 584.025,95.324 582.496,142.859 
					552.428,151.001 552.428,87.333 643.654,62.051 582.496,45.996 583.008,62.051 				"/>
				<polygon fill="#00A0E9" points="646.164,143.32 683.102,143.261 645.871,93.566 609.791,93.624 590.945,111.494 
					627.537,111.435 				"/>
				<polygon fill="#00A0E9" points="552.428,74.524 583.008,66.614 583.008,73.269 552.428,81.18 				"/>
			</g>
		</g>
	</g>
</g>
</svg>
